<?xml version="1.0" encoding="utf-8"?>
<!DOCTYPE score-partwise  PUBLIC "-//Recordare//DTD MusicXML 3.1 Partwise//EN" "http://www.musicxml.org/dtds/partwise.dtd">
<score-partwise version="3.1">
  <work>
    <work-title>Ó, Ó, Menino, Ó</work-title>
  </work>
  <movement-title>Ó, Ó, Menino, Ó</movement-title>
  <identification>
    <creator type="composer">Anonymous</creator>
    <encoding>
      <encoding-date>2022-06-25</encoding-date>
      <software>music21 v.7.1.0</software>
    </encoding>
    <miscellaneous>
      <miscellaneous-field name="date">1981/--/--</miscellaneous-field>
    </miscellaneous>
  </identification>
  <defaults>
    <scaling>
      <millimeters>7</millimeters>
      <tenths>40</tenths>
    </scaling>
  </defaults>
  <part-list>
    <score-part id="1">
      <part-name>Voice</part-name>
      <part-abbreviation>V</part-abbreviation>
      <score-instrument id="I685f4649b441aa0bfbce766a64239fc5">
        <instrument-name>Voice</instrument-name>
        <instrument-abbreviation>V</instrument-abbreviation>
      </score-instrument>
      <midi-instrument id="I685f4649b441aa0bfbce766a64239fc5">
        <midi-channel>1</midi-channel>
        <midi-program>54</midi-program>
      </midi-instrument>
    </score-part>
  </part-list>
  <!--=========================== Part 1 ===========================-->
  <part id="1">
    <!--========================= Measure 1 ==========================-->
    <measure number="1">
      <attributes>
        <divisions>10080</divisions>
        <key>
          <fifths>2</fifths>
          <mode>major</mode>
        </key>
        <time>
          <beats>2</beats>
          <beat-type>2</beat-type>
        </time>
        <clef>
          <sign>G</sign>
          <line>2</line>
        </clef>
        <transpose>
          <diatonic>0</diatonic>
          <chromatic>0</chromatic>
          <octave-change>-1</octave-change>
        </transpose>
      </attributes>
      <note id="d1e103">
        <pitch>
          <step>B</step>
          <octave>4</octave>
        </pitch>
        <duration>20160</duration>
        <type>half</type>
        <notations>
          <slur number="1" type="start" />
        </notations>
      </note>
      <note id="d1e119">
        <pitch>
          <step>C</step>
          <alter>1</alter>
          <octave>5</octave>
        </pitch>
        <duration>10080</duration>
        <type>quarter</type>
      </note>
      <note id="d1e135">
        <pitch>
          <step>B</step>
          <octave>4</octave>
        </pitch>
        <duration>10080</duration>
        <type>quarter</type>
        <notations>
          <slur number="1" type="stop" />
        </notations>
      </note>
    </measure>
    <!--========================= Measure 2 ==========================-->
    <measure number="2">
      <note id="d1e153">
        <pitch>
          <step>D</step>
          <octave>5</octave>
        </pitch>
        <duration>20160</duration>
        <type>half</type>
      </note>
      <note id="d1e167">
        <grace slash="yes" />
        <pitch>
          <step>D</step>
          <octave>5</octave>
        </pitch>
        <type>eighth</type>
      </note>
      <note id="d1e180">
        <pitch>
          <step>D</step>
          <octave>5</octave>
        </pitch>
        <duration>10080</duration>
        <type>quarter</type>
      </note>
      <note id="d1e194">
        <pitch>
          <step>C</step>
          <alter>1</alter>
          <octave>5</octave>
        </pitch>
        <duration>10080</duration>
        <type>quarter</type>
      </note>
    </measure>
    <!--========================= Measure 3 ==========================-->
    <measure number="3">
      <note id="d1e212">
        <pitch>
          <step>B</step>
          <octave>4</octave>
        </pitch>
        <duration>40320</duration>
        <type>whole</type>
      </note>
    </measure>
    <!--========================= Measure 4 ==========================-->
    <measure number="4">
      <note id="d1e228">
        <pitch>
          <step>D</step>
          <octave>5</octave>
        </pitch>
        <duration>10080</duration>
        <type>quarter</type>
        <notations>
          <slur number="2" type="start" />
        </notations>
      </note>
      <note id="d1e244">
        <pitch>
          <step>B</step>
          <octave>4</octave>
        </pitch>
        <duration>10080</duration>
        <type>quarter</type>
        <notations>
          <slur number="2" type="stop" />
        </notations>
      </note>
      <note id="d1e260">
        <pitch>
          <step>D</step>
          <octave>5</octave>
        </pitch>
        <duration>10080</duration>
        <type>quarter</type>
        <notations>
          <slur number="3" type="start" />
        </notations>
      </note>
      <note id="d1e276">
        <pitch>
          <step>B</step>
          <octave>4</octave>
        </pitch>
        <duration>10080</duration>
        <type>quarter</type>
        <notations>
          <slur number="3" type="stop" />
        </notations>
      </note>
    </measure>
    <!--========================= Measure 5 ==========================-->
    <measure number="5">
      <note id="d1e303">
        <pitch>
          <step>D</step>
          <octave>5</octave>
        </pitch>
        <duration>15120</duration>
        <type>quarter</type>
        <dot />
      </note>
      <note id="d1e318">
        <pitch>
          <step>E</step>
          <octave>5</octave>
        </pitch>
        <duration>5040</duration>
        <type>eighth</type>
      </note>
      <note id="d1e332">
        <pitch>
          <step>D</step>
          <octave>5</octave>
        </pitch>
        <duration>10080</duration>
        <type>quarter</type>
      </note>
      <note id="d1e346">
        <pitch>
          <step>C</step>
          <alter>1</alter>
          <octave>5</octave>
        </pitch>
        <duration>10080</duration>
        <type>quarter</type>
      </note>
    </measure>
    <!--========================= Measure 6 ==========================-->
    <measure number="6">
      <note id="d1e364">
        <pitch>
          <step>B</step>
          <octave>4</octave>
        </pitch>
        <duration>20160</duration>
        <type>half</type>
      </note>
      <note id="d1e378">
        <pitch>
          <step>B</step>
          <octave>4</octave>
        </pitch>
        <duration>10080</duration>
        <type>quarter</type>
        <notations>
          <slur number="4" type="start" />
        </notations>
      </note>
      <note id="d1e394">
        <pitch>
          <step>C</step>
          <alter>1</alter>
          <octave>5</octave>
        </pitch>
        <duration>10080</duration>
        <type>quarter</type>
        <notations>
          <slur number="4" type="stop" />
        </notations>
      </note>
    </measure>
    <!--========================= Measure 7 ==========================-->
    <measure number="7">
      <note id="d1e415">
        <pitch>
          <step>D</step>
          <octave>5</octave>
        </pitch>
        <duration>10080</duration>
        <type>quarter</type>
      </note>
      <note id="d1e429">
        <pitch>
          <step>E</step>
          <octave>5</octave>
        </pitch>
        <duration>10080</duration>
        <type>quarter</type>
      </note>
      <note id="d1e443">
        <pitch>
          <step>D</step>
          <octave>5</octave>
        </pitch>
        <duration>10080</duration>
        <type>quarter</type>
      </note>
      <note id="d1e457">
        <pitch>
          <step>C</step>
          <alter>1</alter>
          <octave>5</octave>
        </pitch>
        <duration>10080</duration>
        <type>quarter</type>
      </note>
    </measure>
    <!--========================= Measure 8 ==========================-->
    <measure number="8">
      <note id="d1e475">
        <pitch>
          <step>B</step>
          <octave>4</octave>
        </pitch>
        <duration>20160</duration>
        <type>half</type>
      </note>
      <note id="d1e489">
        <rest />
        <duration>10080</duration>
        <type>quarter</type>
      </note>
      <note id="d1e497">
        <pitch>
          <step>G</step>
          <alter>1</alter>
          <octave>4</octave>
        </pitch>
        <duration>5040</duration>
        <type>eighth</type>
        <accidental>sharp</accidental>
        <beam number="1">begin</beam>
      </note>
      <note id="d1e517">
        <pitch>
          <step>A</step>
          <octave>4</octave>
        </pitch>
        <duration>5040</duration>
        <type>eighth</type>
        <beam number="1">end</beam>
      </note>
    </measure>
    <!--========================= Measure 9 ==========================-->
    <measure number="9">
      <note id="d1e544">
        <pitch>
          <step>A</step>
          <octave>4</octave>
        </pitch>
        <duration>10080</duration>
        <type>quarter</type>
      </note>
      <note id="d1e558">
        <pitch>
          <step>B</step>
          <octave>4</octave>
        </pitch>
        <duration>10080</duration>
        <type>quarter</type>
      </note>
      <note id="d1e572">
        <pitch>
          <step>C</step>
          <alter>1</alter>
          <octave>5</octave>
        </pitch>
        <duration>10080</duration>
        <type>quarter</type>
      </note>
      <note id="d1e588">
        <pitch>
          <step>C</step>
          <alter>1</alter>
          <octave>5</octave>
        </pitch>
        <duration>5040</duration>
        <type>eighth</type>
        <beam number="1">begin</beam>
        <notations>
          <slur number="5" type="start" />
        </notations>
      </note>
      <note id="d1e608">
        <pitch>
          <step>B</step>
          <octave>4</octave>
        </pitch>
        <duration>5040</duration>
        <type>eighth</type>
        <beam number="1">end</beam>
        <notations>
          <slur number="5" type="stop" />
        </notations>
      </note>
    </measure>
    <!--========================= Measure 10 =========================-->
    <measure number="10">
      <note id="d1e628">
        <pitch>
          <step>D</step>
          <octave>5</octave>
        </pitch>
        <duration>20160</duration>
        <type>half</type>
      </note>
      <note id="d1e642">
        <pitch>
          <step>B</step>
          <octave>4</octave>
        </pitch>
        <duration>10080</duration>
        <type>quarter</type>
      </note>
      <note id="d1e656">
        <pitch>
          <step>C</step>
          <alter>1</alter>
          <octave>5</octave>
        </pitch>
        <duration>10080</duration>
        <type>quarter</type>
      </note>
    </measure>
    <!--========================= Measure 11 =========================-->
    <measure number="11">
      <note id="d1e674">
        <pitch>
          <step>D</step>
          <octave>5</octave>
        </pitch>
        <duration>10080</duration>
        <type>quarter</type>
      </note>
      <note id="d1e688">
        <pitch>
          <step>E</step>
          <octave>5</octave>
        </pitch>
        <duration>10080</duration>
        <type>quarter</type>
      </note>
      <note id="d1e702">
        <pitch>
          <step>D</step>
          <octave>5</octave>
        </pitch>
        <duration>10080</duration>
        <type>quarter</type>
      </note>
      <note id="d1e716">
        <pitch>
          <step>C</step>
          <alter>1</alter>
          <octave>5</octave>
        </pitch>
        <duration>10080</duration>
        <type>quarter</type>
      </note>
    </measure>
    <!--========================= Measure 12 =========================-->
    <measure number="12">
      <note id="d1e734">
        <pitch>
          <step>B</step>
          <octave>4</octave>
        </pitch>
        <duration>40320</duration>
        <tie type="start" />
        <type>whole</type>
        <notations>
          <tied type="start" />
        </notations>
      </note>
    </measure>
    <!--========================= Measure 13 =========================-->
    <measure number="13">
      <note id="d1e753">
        <pitch>
          <step>B</step>
          <octave>4</octave>
        </pitch>
        <duration>20160</duration>
        <tie type="stop" />
        <type>half</type>
        <notations>
          <tied type="stop" />
        </notations>
      </note>
      <note id="d1e770">
        <pitch>
          <step>D</step>
          <octave>5</octave>
        </pitch>
        <duration>10080</duration>
        <type>quarter</type>
      </note>
      <note id="d1e784">
        <pitch>
          <step>D</step>
          <octave>5</octave>
        </pitch>
        <duration>10080</duration>
        <type>quarter</type>
      </note>
    </measure>
    <!--========================= Measure 14 =========================-->
    <measure number="14">
      <note id="d1e809">
        <pitch>
          <step>C</step>
          <alter>1</alter>
          <octave>5</octave>
        </pitch>
        <duration>10080</duration>
        <type>quarter</type>
      </note>
      <note id="d1e825">
        <pitch>
          <step>E</step>
          <octave>5</octave>
        </pitch>
        <duration>10080</duration>
        <type>quarter</type>
      </note>
      <note id="d1e839">
        <pitch>
          <step>D</step>
          <octave>5</octave>
        </pitch>
        <duration>10080</duration>
        <type>quarter</type>
      </note>
      <note id="d1e853">
        <pitch>
          <step>C</step>
          <alter>1</alter>
          <octave>5</octave>
        </pitch>
        <duration>10080</duration>
        <type>quarter</type>
      </note>
    </measure>
    <!--========================= Measure 15 =========================-->
    <measure number="15">
      <note id="d1e871">
        <pitch>
          <step>B</step>
          <octave>4</octave>
        </pitch>
        <duration>40320</duration>
        <type>whole</type>
      </note>
    </measure>
    <!--========================= Measure 16 =========================-->
    <measure number="16">
      <note id="d1e887">
        <pitch>
          <step>E</step>
          <octave>5</octave>
        </pitch>
        <duration>15120</duration>
        <type>quarter</type>
        <dot />
        <notations>
          <slur number="6" type="start" />
        </notations>
      </note>
      <note id="d1e904">
        <pitch>
          <step>D</step>
          <octave>5</octave>
        </pitch>
        <duration>5040</duration>
        <type>eighth</type>
      </note>
      <note id="d1e918">
        <pitch>
          <step>E</step>
          <octave>5</octave>
        </pitch>
        <duration>5040</duration>
        <type>eighth</type>
        <beam number="1">begin</beam>
      </note>
      <note id="d1e934">
        <pitch>
          <step>D</step>
          <octave>5</octave>
        </pitch>
        <duration>5040</duration>
        <type>eighth</type>
        <beam number="1">end</beam>
      </note>
      <note id="d1e950">
        <pitch>
          <step>E</step>
          <octave>5</octave>
        </pitch>
        <duration>10080</duration>
        <type>quarter</type>
      </note>
    </measure>
    <!--========================= Measure 17 =========================-->
    <measure number="17">
      <note id="d1e966">
        <pitch>
          <step>F</step>
          <alter>1</alter>
          <octave>5</octave>
        </pitch>
        <duration>15120</duration>
        <type>quarter</type>
        <dot />
      </note>
      <note id="d1e983">
        <pitch>
          <step>E</step>
          <octave>5</octave>
        </pitch>
        <duration>5040</duration>
        <type>eighth</type>
      </note>
      <note id="d1e997">
        <pitch>
          <step>F</step>
          <alter>1</alter>
          <octave>5</octave>
        </pitch>
        <duration>5040</duration>
        <type>eighth</type>
        <beam number="1">begin</beam>
      </note>
      <note id="d1e1015">
        <pitch>
          <step>G</step>
          <octave>5</octave>
        </pitch>
        <duration>5040</duration>
        <type>eighth</type>
        <beam number="1">end</beam>
      </note>
      <note id="d1e1031">
        <pitch>
          <step>E</step>
          <octave>5</octave>
        </pitch>
        <duration>10080</duration>
        <type>quarter</type>
        <notations>
          <slur number="6" type="stop" />
        </notations>
      </note>
    </measure>
    <!--========================= Measure 18 =========================-->
    <measure number="18">
      <note id="d1e1059">
        <pitch>
          <step>D</step>
          <octave>5</octave>
        </pitch>
        <duration>10080</duration>
        <type>quarter</type>
        <notations>
          <slur number="1" type="start" />
        </notations>
      </note>
      <note id="d1e1075">
        <pitch>
          <step>B</step>
          <octave>4</octave>
        </pitch>
        <duration>10080</duration>
        <type>quarter</type>
        <notations>
          <slur number="1" type="stop" />
        </notations>
      </note>
      <note id="d1e1091">
        <pitch>
          <step>D</step>
          <octave>5</octave>
        </pitch>
        <duration>10080</duration>
        <type>quarter</type>
        <notations>
          <slur number="2" type="start" />
        </notations>
      </note>
      <note id="d1e1107">
        <pitch>
          <step>B</step>
          <octave>4</octave>
        </pitch>
        <duration>10080</duration>
        <type>quarter</type>
        <notations>
          <slur number="2" type="stop" />
        </notations>
      </note>
    </measure>
    <!--========================= Measure 19 =========================-->
    <measure number="19">
      <note id="d1e1125">
        <pitch>
          <step>D</step>
          <octave>5</octave>
        </pitch>
        <duration>15120</duration>
        <type>quarter</type>
        <dot />
      </note>
      <note id="d1e1140">
        <pitch>
          <step>E</step>
          <octave>5</octave>
        </pitch>
        <duration>5040</duration>
        <type>eighth</type>
      </note>
      <note id="d1e1154">
        <pitch>
          <step>D</step>
          <octave>5</octave>
        </pitch>
        <duration>10080</duration>
        <type>quarter</type>
      </note>
      <note id="d1e1168">
        <pitch>
          <step>C</step>
          <alter>1</alter>
          <octave>5</octave>
        </pitch>
        <duration>10080</duration>
        <type>quarter</type>
      </note>
    </measure>
    <!--========================= Measure 20 =========================-->
    <measure number="20">
      <note id="d1e1186">
        <pitch>
          <step>B</step>
          <octave>4</octave>
        </pitch>
        <duration>20160</duration>
        <type>half</type>
      </note>
      <note id="d1e1200">
        <pitch>
          <step>B</step>
          <octave>4</octave>
        </pitch>
        <duration>10080</duration>
        <type>quarter</type>
        <notations>
          <slur number="3" type="start" />
        </notations>
      </note>
      <note id="d1e1216">
        <pitch>
          <step>C</step>
          <alter>1</alter>
          <octave>5</octave>
        </pitch>
        <duration>10080</duration>
        <type>quarter</type>
        <notations>
          <slur number="3" type="stop" />
        </notations>
      </note>
    </measure>
    <!--========================= Measure 21 =========================-->
    <measure number="21">
      <note id="d1e1236">
        <pitch>
          <step>D</step>
          <octave>5</octave>
        </pitch>
        <duration>10080</duration>
        <type>quarter</type>
      </note>
      <note id="d1e1250">
        <pitch>
          <step>E</step>
          <octave>5</octave>
        </pitch>
        <duration>10080</duration>
        <type>quarter</type>
      </note>
      <note id="d1e1264">
        <pitch>
          <step>D</step>
          <octave>5</octave>
        </pitch>
        <duration>10080</duration>
        <type>quarter</type>
      </note>
      <note id="d1e1278">
        <pitch>
          <step>C</step>
          <alter>1</alter>
          <octave>5</octave>
        </pitch>
        <duration>10080</duration>
        <type>quarter</type>
      </note>
    </measure>
    <!--========================= Measure 22 =========================-->
    <measure number="22">
      <note id="d1e1305">
        <pitch>
          <step>B</step>
          <octave>4</octave>
        </pitch>
        <duration>20160</duration>
        <type>half</type>
      </note>
      <note id="d1e1319">
        <rest />
        <duration>10080</duration>
        <type>quarter</type>
      </note>
      <note id="d1e1327">
        <pitch>
          <step>G</step>
          <alter>1</alter>
          <octave>4</octave>
        </pitch>
        <duration>5040</duration>
        <type>eighth</type>
        <accidental>sharp</accidental>
        <beam number="1">begin</beam>
      </note>
      <note id="d1e1347">
        <pitch>
          <step>A</step>
          <octave>4</octave>
        </pitch>
        <duration>5040</duration>
        <type>eighth</type>
        <beam number="1">end</beam>
      </note>
    </measure>
    <!--========================= Measure 23 =========================-->
    <measure number="23">
      <note id="d1e1365">
        <pitch>
          <step>B</step>
          <octave>4</octave>
        </pitch>
        <duration>10080</duration>
        <type>quarter</type>
      </note>
      <note id="d1e1379">
        <pitch>
          <step>B</step>
          <octave>4</octave>
        </pitch>
        <duration>10080</duration>
        <type>quarter</type>
      </note>
      <note id="d1e1393">
        <pitch>
          <step>C</step>
          <alter>1</alter>
          <octave>5</octave>
        </pitch>
        <duration>10080</duration>
        <type>quarter</type>
      </note>
      <note id="d1e1409">
        <pitch>
          <step>C</step>
          <alter>1</alter>
          <octave>5</octave>
        </pitch>
        <duration>5040</duration>
        <type>eighth</type>
        <beam number="1">begin</beam>
        <notations>
          <slur number="4" type="start" />
        </notations>
      </note>
      <note id="d1e1429">
        <pitch>
          <step>B</step>
          <octave>4</octave>
        </pitch>
        <duration>5040</duration>
        <type>eighth</type>
        <beam number="1">end</beam>
        <notations>
          <slur number="4" type="stop" />
        </notations>
      </note>
    </measure>
    <!--========================= Measure 24 =========================-->
    <measure number="24">
      <note id="d1e1449">
        <pitch>
          <step>D</step>
          <octave>5</octave>
        </pitch>
        <duration>10080</duration>
        <type>quarter</type>
      </note>
      <note id="d1e1463">
        <pitch>
          <step>D</step>
          <octave>5</octave>
        </pitch>
        <duration>10080</duration>
        <type>quarter</type>
      </note>
      <note id="d1e1477">
        <pitch>
          <step>B</step>
          <octave>4</octave>
        </pitch>
        <duration>10080</duration>
        <type>quarter</type>
      </note>
      <note id="d1e1491">
        <pitch>
          <step>C</step>
          <alter>1</alter>
          <octave>5</octave>
        </pitch>
        <duration>10080</duration>
        <type>quarter</type>
      </note>
    </measure>
    <!--========================= Measure 25 =========================-->
    <measure number="25">
      <note id="d1e1509">
        <pitch>
          <step>D</step>
          <octave>5</octave>
        </pitch>
        <duration>10080</duration>
        <type>quarter</type>
      </note>
      <note id="d1e1523">
        <pitch>
          <step>E</step>
          <octave>5</octave>
        </pitch>
        <duration>10080</duration>
        <type>quarter</type>
      </note>
      <note id="d1e1540">
        <pitch>
          <step>D</step>
          <octave>5</octave>
        </pitch>
        <duration>10080</duration>
        <type>quarter</type>
      </note>
      <note id="d1e1554">
        <pitch>
          <step>C</step>
          <alter>1</alter>
          <octave>5</octave>
        </pitch>
        <duration>10080</duration>
        <type>quarter</type>
      </note>
    </measure>
    <!--========================= Measure 26 =========================-->
    <measure number="26">
      <note id="d1e1581">
        <pitch>
          <step>B</step>
          <octave>4</octave>
        </pitch>
        <duration>10080</duration>
        <type>quarter</type>
      </note>
      <note id="d1e1595">
        <pitch>
          <step>B</step>
          <octave>4</octave>
        </pitch>
        <duration>30240</duration>
        <type>half</type>
        <dot />
        <notations>
          <slur number="5" type="start" />
        </notations>
      </note>
    </measure>
    <!--========================= Measure 27 =========================-->
    <measure number="27">
      <note id="d1e1614">
        <pitch>
          <step>B</step>
          <octave>4</octave>
        </pitch>
        <duration>10080</duration>
        <type>quarter</type>
        <notations>
          <slur number="5" type="stop" />
        </notations>
      </note>
      <note id="d1e1630">
        <rest />
        <duration>10080</duration>
        <type>quarter</type>
      </note>
      <note id="d1e1638">
        <pitch>
          <step>D</step>
          <octave>5</octave>
        </pitch>
        <duration>10080</duration>
        <type>quarter</type>
      </note>
      <note id="d1e1652">
        <pitch>
          <step>D</step>
          <octave>5</octave>
        </pitch>
        <duration>10080</duration>
        <type>quarter</type>
      </note>
    </measure>
    <!--========================= Measure 28 =========================-->
    <measure number="28">
      <note id="d1e1668">
        <pitch>
          <step>C</step>
          <alter>1</alter>
          <octave>5</octave>
        </pitch>
        <duration>10080</duration>
        <type>quarter</type>
      </note>
      <note id="d1e1684">
        <pitch>
          <step>E</step>
          <octave>5</octave>
        </pitch>
        <duration>10080</duration>
        <type>quarter</type>
      </note>
      <note id="d1e1698">
        <pitch>
          <step>D</step>
          <octave>5</octave>
        </pitch>
        <duration>10080</duration>
        <type>quarter</type>
      </note>
      <note id="d1e1712">
        <pitch>
          <step>C</step>
          <alter>1</alter>
          <octave>5</octave>
        </pitch>
        <duration>10080</duration>
        <type>quarter</type>
      </note>
    </measure>
    <!--========================= Measure 29 =========================-->
    <measure number="29">
      <note id="d1e1734">
        <pitch>
          <step>B</step>
          <octave>4</octave>
        </pitch>
        <duration>10080</duration>
        <type>quarter</type>
      </note>
      <note id="d1e1748">
        <pitch>
          <step>B</step>
          <octave>4</octave>
        </pitch>
        <duration>30240</duration>
        <type>half</type>
        <dot />
      </note>
      <barline location="right">
        <bar-style>light-heavy</bar-style>
      </barline>
    </measure>
  </part>
</score-partwise>